<?xml version="1.0" encoding="UTF-8"?>
<svg id="uuid-8d43ce1f-3628-40ce-9919-6dccc066d3b4" data-name="Capa 1" xmlns="http://www.w3.org/2000/svg" viewBox="0 0 3254.9971 2359.8804">
  <defs>
    <style>
      .uuid-4c134b83-0782-46c2-950f-e24aa20a3ce0 {
        letter-spacing: .009em;
      }

      .uuid-cce61ea6-3e7e-4a4f-b7ba-80b0a66468a5 {
        letter-spacing: .005em;
      }

      .uuid-662a7383-5726-40a8-a5b8-06084c1c2dc0 {
        letter-spacing: .137em;
      }

      .uuid-dff666d3-65a7-4bbf-b71e-8a777fb51f39 {
        letter-spacing: -.01em;
      }

      .uuid-9241e140-7215-47d1-8431-784222c0637a {
        letter-spacing: .137em;
      }

      .uuid-18d88a80-bbc0-43c1-84fa-a98e343b7f03, .uuid-2552bb72-68d1-4cb2-91de-fa5e09df50ac, .uuid-948325ed-910c-4245-bd7f-2397b660509a {
        fill: #ffb81c;
      }

      .uuid-2552bb72-68d1-4cb2-91de-fa5e09df50ac {
        font-family: Montserrat-Bold, Montserrat;
        font-size: 300.8775px;
        opacity: .97;
      }

      .uuid-2552bb72-68d1-4cb2-91de-fa5e09df50ac, .uuid-948325ed-910c-4245-bd7f-2397b660509a {
        font-weight: 700;
      }

      .uuid-948325ed-910c-4245-bd7f-2397b660509a {
        font-family: Boska-Bold, Boska;
        font-size: 676.8623px;
      }

      .uuid-5a9a778e-8ddc-4362-b254-1a82d6a867c7 {
        letter-spacing: .116em;
      }

      .uuid-6da427d2-b346-4540-90d4-a78dec0a00d3 {
        letter-spacing: .137em;
      }

      .uuid-343326bb-a0d3-42c7-a5b6-0f50972500a4 {
        letter-spacing: .131em;
      }

      .uuid-12236e13-d1ae-4b66-be45-e7567afca1b7 {
        letter-spacing: -.001em;
      }
    </style>
  </defs>
  <g>
    <path class="uuid-18d88a80-bbc0-43c1-84fa-a98e343b7f03" d="M2195.9986,1090.5235c-72.4732,2.5338-132.9296-9.6393-181.3363-36.562-48.4097-26.9014-83.3107-77.0935-104.6911-150.549-37.2352,29.2891-73.7425,54.8673-109.5219,76.7376.2707-1.2593.4602-2.3361.4512-2.3939-.4813-4.0547-3.5945-6.2965-4.1299-6.6706-2.9869-.3893-6.0189-.8517-9.087-1.3901-26.8849-4.7117-50.0671-14.1807-69.4111-25.0094.5986-.4593,1.522-1.0555,2.7583-1.3901,2.0123-.5506,3.408-.0122,5.2278.2768,3.1162.4897,5.5647-.0517,9.093-.8334,1.5611-.3468,3.6607-.9277,6.058-1.9467-.6226-7.3246-1.8439-18.7221-4.4066-32.5134-3.2817-17.6422-7.1198-30.3659-7.9861-33.3499-4.8789-16.7236-11.8332-54.4567-21.4827-143.6838-1.1611-13.7123-2.1747-27.607-3.032-41.6874-3.808-62.4444-4.175-122.1025-2.0183-178.6063.5775-5.4965,1.1641-10.9929,1.7416-16.4894,2.7673,9.0949,5.7873,16.1487,7.9861,20.8452,3.7509,7.9907,8.1004,15.3305,16.8053,30.0131,4.8819,8.2371,6.813,11.215,9.087,16.9548,2.4846,6.2721,2.2048,7.8447,4.9571,13.3381,3.4832,6.9565,5.7301,8.0242,7.7123,13.3412,1.3867,3.717,2.1868,8.2888,1.6514,13.8948.8152,5.6577.9204,10.4028.8272,13.8948-.0752,2.984-.1504,5.4143-.8272,8.6173-.8452,4.0303-1.7747,5.1315-3.029,9.1709-1.51,4.8516-1.1731,6.479-2.2048,11.9511-.6467,3.4463-1.8228,8.3344-4.1299,14.1716,1.1791,3.1726,2.6259,7.5162,3.8562,12.7845,2.8906,12.3587,2.8275,22.141,2.7583,27.7926-.1053,8.0242-.9956,19.1023-4.4096,31.9598,8.3982,2.3452,21.1277,4.8394,36.6306,3.8904,17.2655-1.0585,30.7712-5.9466,39.1092-9.7276-.4963-2.6372-1.2964-6.6037-2.4785-11.3944-1.1069-4.4957-1.9882-7.4341-2.4785-9.1709-2.659-9.4416-3.5223-17.8977-4.1299-23.8991-.6257-6.1504-1.0438-13.5571-.8272-21.9554,2.8425,1.457,5.3511,1.676,6.3347.5536.9114-1.0342.3038-2.9596,0-3.8904-1.8288-5.5786-6.458-6.5398-11.5685-12.2279-4.2442-4.7239-6.2926-9.8949-5.7843-10.2812.4031-.3042,2.1958,2.4456,5.7843,4.444,3.3749,1.8798,6.819,2.2479,9.3667,2.2235.5324-2.698.2677-4.8394,0-6.1139-.5204-2.4851-1.5701-4.2828-2.4815-5.8341-1.1069-1.895-1.525-2.0806-2.4785-3.6136-1.507-2.4273-2.0514-4.5261-2.7493-7.2272-.6196-2.3695-1.2844-5.7763-1.3776-10.0044-.1624-.9247-.5625-2.5095-1.6544-4.1672-1.0407-1.5848-2.268-2.546-3.029-3.057-4.1509-4.2919-8.5696-9.3656-12.9431-15.2879-3.0591-4.1338-5.7061-8.1519-7.9921-11.948.4452-1.6456.8873-4.0881.5505-6.9474-.761-6.5611-5.0142-10.2599-7.7123-14.1746-2.8395-4.1307-5.5406-10.8165-4.6773-21.9554-.5505-10.4332-2.4003-18.9167-4.1359-25.0124-1.7957-6.3025-4.0577-14.2507-9.3607-23.3455-2.9327-5.022-5.1767-7.6287-7.1619-13.3381-1.9973-5.7337-2.4394-10.8773-2.4815-14.4514-1.1099-6.0501-.8001-10.7009-.2737-13.8978.382-2.3269.9084-4.0668.8242-6.9474-.1233-4.5353-1.6333-7.869-2.2018-9.1709-2.7974-6.3907-4.5931-13.2621-7.1619-23.0657-1.4859-5.682-1.0438-6.1474-3.5794-25.0124-1.1039-8.2067-2.0935-14.8742-2.7553-19.1783.5113-1.2806,1.2062-3.2881,1.6514-5.8341.7008-3.9847.1083-5.4295,1.3776-7.504,1.3295-2.1688,2.7011-1.7855,4.4096-3.8904.8843-1.095,1.6694-2.619,2.2048-8.0607.8362-8.5686-.4783-11.069,1.3746-13.0613.9535-1.0251,2.9087-2.0866,7.4386-1.3901,1.5491.0365,3.8411.0183,6.6084-.2768,2.5447-.2738,4.2322-.6479,5.2308-.8334,4.3675-.8122,6.1242.0183,12.9461.2768,4.3645.1643,9.1832.3194,14.8772-.8334,3.5584-.7239,6.3949-1.7399,8.2598-2.5034.1594-1.8129.5986-3.9087,1.9251-4.444,1.4739-.5962,3.3569,1.0007,3.8562,1.387,6.6054,5.098,29.0356-2.5034,36.0862-5.0007,6.843-2.4273,15.7315-5.9162,25.8863-10.8378-2.265-2.2935-5.4925-5.3474-9.6404-8.6173-8.1094-6.3938-15.175-10.0104-21.2089-13.0613-4.9872-2.5216-11.5625-5.5238-19.5516-8.3375.2527-.3255,1.7747-2.3087,1.1009-4.1672-.388-1.0677-1.3265-1.6304-1.9281-1.9467-4.0788-2.1505-9.5773-1.965-10.1909-1.9467-4.3194.1399-8.6268-.4532-12.9431-.5536-12.143-.289-13.7192-.3376-16.5286.5536-3.5433,1.1255-3.8381,2.0927-8.5395,4.1703-5.4805,2.4212-10.3142,3.422-13.4936,3.8904-3.2456,1.7399-7.7815,4.6782-12.119,9.4477-3.0861,3.3946-5.1887,6.7497-6.6084,9.4508-4.1359,5.7428-8.2658,11.4857-12.3957,17.2316l-5.2338,6.1139c-1.4679-1.4844-2.9388-2.9657-4.4066-4.4471-1.9612-1.1072-5.0654-2.622-9.09-3.6136-5.8414-1.4357-8.7862-.5749-11.2918-2.7802-2.3251-2.041-2.3763-5.0585-2.7523-9.7245-1.0798-13.4263-2.259-8.7937-3.5824-25.5691-.3489-4.4592-.7159-10.4211-.8272-17.5084,1.3776-2.4091,2.7583-4.8182,4.1299-7.2272,1.0137-1.019,2.0243-2.038,3.032-3.057.5535-1.7581,1.1009-3.5193,1.6514-5.2805-.5505-2.4091-1.0979-4.8151-1.6514-7.2242-1.4949-2.479-3.038-5.4448-4.4036-8.8941-2.3071-5.8067-3.3659-11.1116-3.8562-15.2849-.367-3.2425-.74-6.485-1.1069-9.7276.1865-3.3338.367-6.6706.5535-10.0044-.2737-4.7239-.5535-9.4508-.8272-14.1746.8272-4.9094,1.6514-9.8188,2.4785-14.7282.5535-6.2082,1.1009-12.4134,1.6514-18.6217-.4572-2.8714-.9174-5.7428-1.3776-8.6143-.367-1.9467-.7339-3.8904-1.1009-5.8371-1.9251-3.5193-3.8562-7.0386-5.7812-10.561-3.8351-3.7383-7.8176-7.8964-11.8422-12.5047-4.6954-5.3687-8.8042-10.6066-12.3987-15.5647-4.5901-3.9817-9.1802-7.9664-13.7673-11.948-2.2981-4.9733-4.5901-9.9435-6.8882-14.9168-3.6065-.9582-8.2417-2.5672-13.2199-5.3718-1.9672-1.1072-3.7539-2.2722-5.3692-3.4402,63.4102,3.4068,112.0967,17.7335,136.4218,25.8884,35.3944,18.2506,70.7857,36.5012,106.1801,54.7517l-18.8958-34.9164C1889.1804,33.3343,1978.88,4.5318,2105.9983.0756c7.1318,124.7731,8.9065,250.7873,5.3421,378.0699-3.5674,127.2826-10.6992,255.1979-21.3834,383.7246-1.7897,70.3134,8.0131,129.5092,29.4086,177.6359,21.3834,48.1268,46.9208,98.4832,76.6331,151.0175Z"/>
    <path class="uuid-18d88a80-bbc0-43c1-84fa-a98e343b7f03" d="M1799.935,980.4664c.1715-.1034.3429-.2099.5144-.3133-.0932.4319-.1925.8821-.3008,1.3232-.0662-.1034-.1384-.2038-.2106-.3011.012-.2373.012-.4745-.003-.7087Z"/>
    <path class="uuid-18d88a80-bbc0-43c1-84fa-a98e343b7f03" d="M1789.7622,986.5895c.0511.0456.1023.0943.1594.1399-.1323.003-.2677.003-.4031.0061l.2436-.146Z"/>
    <path class="uuid-18d88a80-bbc0-43c1-84fa-a98e343b7f03" d="M1782.1701,986.6503c2.8425.0608,5.2699.1125,7.3454.0852-77.8273,46.1253-152.1774,74.5597-223.0413,85.285-106.6312,16.1366-198.8485,5.0645-276.6667-33.2586-77.8152-38.2988-137.3753-97.9874-178.6502-179.0443-41.2779-81.0539-58.0471-171.6072-50.3378-271.6629,10.6842-146.2784,53.5984-264.6943,128.7456-355.2506,60.7031-73.1483,129.7653-117.4972,184.3893-144.0883-.4783,1.314-.6858,2.6403-.5144,3.8843.4362,3.2273,3.2847,5.5968,2.7523,6.1139-.4662.4471-2.274-1.6791-4.6834-1.6699-2.4244.0122-4.4156,2.1809-5.7843,4.1703-2.0785,2.0136-4.4217,4.9946-4.4066,8.6143.018,4.5353,3.7178,7.9268,2.4785,9.4508-.8121,1.0038-2.4605-.4106-4.6803.2768-5.291,1.6365-8.732,13.5997-5.7843,19.1753.2767.5262.8964,1.53.5535,2.5034-.5865,1.6456-3.5373,2.1049-6.064,2.2235-1.3325,2.0714-2.9989,5.317-3.3027,9.4477-.2948,3.9908.9776,4.7543.8242,8.8941-.1805,4.9976-2.0875,5.2349-3.5794,12.5047-.761,3.714-1.3927,6.9839-.2767,10.8408.8272,2.8288,2.271,4.879,3.3057,6.1139-1.4889,3.0266-4.2532,9.7641-2.7553,17.5084.5444,2.7984,1.125,5.8006,3.5855,8.0576,2.9929,2.7528,6.4129,2.2266,6.8822,4.1703.5174,2.1201-3.417,3.3611-4.6834,7.504-1.0077,3.3094.3158,6.3999,1.3806,8.8911,2.8605,6.698,8.5185,10.1017,11.0151,11.3944-.761,1.1285-5.7933,8.8242-3.029,16.6749.9986,2.838,3.2907,6.4698,6.8852,8.8941,3.7118,2.5003,6.8491,2.4,7.216,4.3132.4331,2.2692-3.8231,3.2851-4.4608,7.0812-.4001,2.3635.9264,4.3558,3.5794,8.3375,3.2004,4.8029,4.8999,7.3519,7.9861,8.3375,4.7736,1.5209,9.481-1.7521,9.9472-.8152.5083,1.022-5.7091,3.641-6.3648,8.8759-.1654,1.3293.0872,2.3361.5535,4.1672.364,1.46,1.3746,5.2562,4.4036,8.0607,2.6349,2.4365,3.6998,1.2562,5.2338,3.057,3.0079,3.5284-1.0377,8.1063,1.6514,14.4514.4572,1.0798,1.8258,4.3102,4.9571,5.8371,3.5945,1.749,7.198.143,7.7123,1.387.5083,1.2258-3.0861,2.5338-4.1299,6.3938-.8001,2.9748.391,5.682.8242,6.6706.2316.5201,1.8108,3.9634,5.5135,5.8341,2.8666,1.4509,5.0202.9521,5.2789,1.9863.3279,1.314-3.1764,2.0897-4.181,5.241-.746,2.3452.3188,4.6721,1.1009,6.3907.761,1.6669,1.7506,3.8265,3.8592,4.7269,2.5958,1.1072,5.1436-.4471,5.5045.2768.3399.6753-1.8649,2.0654-3.029,3.6136-1.6844,2.2418-2.4394,6.4972,1.3776,15.2849-10.0074,11.58-20.0148,23.16-30.0192,34.74-3.0079,7.6348-5.8805,15.6955-8.5365,24.1759-9.9713,31.7956-14.405,61.4223-15.9781,86.9884-2.1687,21.0095-4.7676,40.0935-7.4326,56.9722-3.9765,25.1219-5.9617,37.6844-10.1939,55.0285-2.8154,11.5283-5.1887,19.3639-7.9861,34.4601-2.3522,12.6659-1.8619,13.5237-4.4096,28.9028-2.286,13.8066-4.4608,23.8413-8.8132,43.9109-3.6396,16.7845-5.0924,22.2779-7.7123,36.1301-1.6423,8.6964-2.8275,15.8598-3.5794,20.5654-.6467,2.0532-1.2994,4.9033-1.3746,8.3375-.0572,2.4973.2075,4.663.5474,6.3907.1233.3711,2.0484,5.8067,7.7123,7.2272,3.8802.9734,8.0131-.3163,10.7413-3.3368.2497.3924,4.7856,7.2759,12.119,6.9474,4.6292-.2038,7.8056-3.1695,8.2658-3.6106,3.4862-3.3551,4.0848-7.9329,4.6834-7.7839.7219.1855-1.8439,6.5824,1.0979,10.2842,1.7446,2.1962,4.7014,2.5307,6.8882,2.7802,1.4649.1643,7.0295.7969,9.9111-2.5034,2.5116-2.8714,1.6273-7.1603,2.4785-7.2242.8302-.0639.7309,4.0243,3.5824,7.2242,1.877,2.1079,4.9932,3.784,8.5365,3.6136.4903-.0243,5.2007-.3194,7.7123-3.8904,2.8004-3.9695,1.0919-9.4416,1.895-9.5846.755-.1338.8121,5.025,4.4397,7.9177,3.9675,3.1604,10.3052,2.1079,12.6694.5566.5444-.3559,1.0468-.7909,1.0468-.7909.5956-.5475,1.2242-1.2197,1.8108-2.0349,2.1808-3.0205,2.5808-6.2539,2.656-8.015,1.2724.8943,3.9825,2.5247,7.7093,2.7802,3.4591.2342,9.0599-.6296,11.5685-4.4471,3.3178-5.0585-.4392-12.7937,1.1009-13.3412.7099-.2525,1.504,1.4114,3.029,2.5034,2.5056,1.7946,6.822,1.9376,14.3208-1.6669,1.8168-1.8889,3.9885-4.7999,4.4066-8.6173.4873-4.4288-1.6333-7.8964-.2737-8.8911,1.0137-.7452,2.5206.9369,5.7873,1.6669,2.8214.6296,6.9784.5475,9.6374-1.3901,3.7659-2.7467,3.8171-8.7116,3.8592-14.1746.0572-8.088-2.0875-13.2165,0-14.4514,1.0468-.6236,1.877.5141,5.5045.5566,1.8108.0213,3.9344.0456,5.7843-1.1133,2.8214-1.7642,3.4351-5.3079,3.5824-6.3907.5625-3.6136.9054-8.6751-.2767-14.4514-1.3566-6.631-3.8863-10.0804-2.2018-12.2279,2.286-2.9231,8.6358,1.314,12.6664-1.9467,2.5598-2.0684,2.4394-5.7459,2.4815-13.0613.0331-5.0828.1444-12.4743.5474-21.6786.9445-2.619,2.1176-6.3117,3.032-10.8378,1.1701-5.7702,2.5598-12.6629,1.3806-20.8422-1.2754-8.7664-4.4457-11.6895-2.2078-15.8415,1.4709-2.7315,3.7449-3.1421,5.2338-6.6706,1.3145-3.1178.9956-6.2447.5505-8.3375-.0421-3.1847-.4061-7.6805-1.9281-12.7845-2.0304-6.7983-4.8488-10.4424-3.3057-12.5047,1.7235-2.2996,6.4069.6418,9.3637-1.1133,3.2696-1.9346,4.4547-9.6059-1.9251-31.9598,1.2603.0091,3.0922-.1582,4.9601-1.1102,2.6169-1.3384,3.3839-3.2456,4.1299-3.057.8633.216,1.3987,3.1391,0,15.005-.3579,9.247-1.3476,16.5989-2.2048,21.6786-.8603,5.0889-1.6814,8.4257-2.2018,14.4514-.4933,5.6394-.2767,8.4865-.2767,14.1746,0,10.9351-.7941,10.05-1.6514,29.1796-.5685,12.5807-.2737,14.059-1.3806,18.8985-1.2092,5.2957-2.4635,7.4827-3.5794,13.618-1.2814,7.0508-1.122,12.4286-1.1009,14.4514.1624,15.8902-5.8775,43.5672-12.119,83.0979-.2106,1.3475-2.0695,14.3297-5.7812,40.2973-5.4714,38.238-8.7651,61.6353-11.2948,92.2658-.2497,3.0053-.4362,5.4508-.5535,6.9474,1.7386.1886,3.4772.3741,5.2158.5597,2.5778.2768,5.1526.5536,7.7304.8304-.3279,1.3445-.8182,3.3672-1.3746,5.8371-.6948,3.0752-1.2333,5.6486-1.3806,6.3907-1.0678,5.39-1.1761,12.3739-1.1009,17.2316.4211,1.2471,1.2062,2.9748,2.7583,4.4471,2.9989,2.8562,7.0205,2.9901,10.4646,3.057,11.1173.216,16.676.3224,17.6265.2768,5.4323-.2525,10.9699.0152,22.0361.5566,4.4337.216,11.2196.6996,24.7854,1.6669,5.7572.4106,6.5603.4806,7.7153.5566,7.6432.5141,19.0192.6418,34.8379-1.2045,1.7837.3224,3.5343-.5719,4.2683-2.1292.6317-1.3414.4181-2.9718-.5474-4.1703.761-.1764,2.2199-.6509,3.026-1.9437,1.2964-2.0806.4873-5.606-2.4785-8.0607-2.6831-.5719-6.7949-1.4418-11.8422-2.5003-5.3962-1.1315-6.9363-1.4418-7.9861-1.6699-8.5034-1.822-11.3279-3.6805-20.9352-6.6675-13.9899-4.3558-17.443-3.352-24.5086-8.0607-3.4351-2.2874-5.8955-4.7056-7.4386-6.3907,25.8893.8334,51.7786,1.6669,77.6709,2.5003.3128-1.2167.9625-2.9201,2.4785-3.8904,2.0695-1.3293,4.3976-.4258,8.5365,0h8.2628c4.0036-.003,11.0421-.0487,23.9672-.2798.4692,2.3269,1.0016,5.9193.8242,10.2842-.3339,7.9938-2.7493,11.0325-2.2048,16.3981.3188,3.1634,1.7266,7.65,6.8882,12.7815,1.5521.5019,3.9314,1.1376,6.8822,1.3901,3.8171.3285,6.1392-.1886,10.7443-.5536,1.9521-.1551,4.6082-.1977,9.9141-.2798,15.8007-.2433,16.1676,1.1346,26.7165.5566,7.3273-.4015,9.6103-1.2015,14.8742-.2768,2.7342.4776,4.3826,1.092,8.8132,1.6669,3.3689.435,5.9316.7665,9.3667.5536,4.2442-.2616,4.5239-1.0281,7.9861-.8334,2.2379.1278,2.9297.4958,6.6084.8334,2.3101.2129,4.0547.2555,5.2308.2798Z"/>
    <path class="uuid-18d88a80-bbc0-43c1-84fa-a98e343b7f03" d="M1602.6176,40.3455c-1.3867,3.2456-2.7733,6.4881-4.157,9.7336h-4.9571c-1.149.1551-3.9975.7026-6.3347,3.057-3.4591,3.4798-3.1012,8.228-3.029,9.7245.2075,4.368,2.638,7.5223,3.8562,8.8941-3.9404,2.622-9.3246,6.8713-14.3238,13.3412-6.5122,8.4287-9.3968,16.7875-10.7413,21.9554-.5835,13.3868-.74,27.6861-.2737,42.7976.3489,11.3488,1.0197,22.1988,1.9281,32.5165.0902,6.2052.1835,12.4134.2737,18.6186.2767,7.136.5505,14.2689.8272,21.4018l-3.5824,11.6712c-1.8348,2.5003-3.6697,5.0037-5.5075,7.504-2.3853,1.2045-4.7736,2.4091-7.1619,3.6136-1.3746-1.8524-2.7523-3.7079-4.1299-5.5603-.8272-2.2235-1.6544-4.4471-2.4785-6.6675-5.67-14.3571-13.5989-34.667-22.8603-59.1958-17.6385-46.7093-21.0014-51.7343-26.4427-68.9233-3.5704-11.2819-6.1272-20.6292-7.7123-26.6793-6.2445-13.0857-8.2838-19.0475-8.8132-21.9554-.1023-.5445-.361-2.1809-1.3506-3.9695,45.9071-10.3298,88.8724-13.1404,126.9709-11.8781Z"/>
    <path class="uuid-18d88a80-bbc0-43c1-84fa-a98e343b7f03" d="M1475.6467,52.2236c-.015.0061-.0331.0091-.0481.0122.003-.0122.009-.0213.012-.0335.003-.0061.003-.0091.006-.0152,0-.003.003-.0091.003-.0122.009.0152.018.0335.0271.0487Z"/>
  </g>
  <text class="uuid-948325ed-910c-4245-bd7f-2397b660509a" transform="translate(.0002 1748.8647)"><tspan class="uuid-4c134b83-0782-46c2-950f-e24aa20a3ce0" x="0" y="0">Anup</tspan><tspan class="uuid-dff666d3-65a7-4bbf-b71e-8a777fb51f39" x="1583.8379" y="0">r</tspan><tspan class="uuid-4c134b83-0782-46c2-950f-e24aa20a3ce0" x="1859.3174" y="0">o</tspan><tspan class="uuid-12236e13-d1ae-4b66-be45-e7567afca1b7" x="2225.498" y="0">3</tspan><tspan class="uuid-cce61ea6-3e7e-4a4f-b7ba-80b0a66468a5" x="2547.6797" y="0">60</tspan></text>
  <text class="uuid-2552bb72-68d1-4cb2-91de-fa5e09df50ac" transform="translate(159.0934 2284.6606) scale(.4447 1)"><tspan class="uuid-5a9a778e-8ddc-4362-b254-1a82d6a867c7" x="0" y="0">C</tspan><tspan class="uuid-9241e140-7215-47d1-8431-784222c0637a" x="255.1434" y="0">onsul</tspan><tspan class="uuid-343326bb-a0d3-42c7-a5b6-0f50972500a4" x="1285.6363" y="0">t</tspan><tspan class="uuid-662a7383-5726-40a8-a5b8-06084c1c2dc0" x="1457.4345" y="0">oría y </tspan><tspan class="uuid-343326bb-a0d3-42c7-a5b6-0f50972500a4" x="2667.8496" y="0">C</tspan><tspan class="uuid-6da427d2-b346-4540-90d4-a78dec0a00d3" x="2927.5068" y="0">apacitación E.I.R.L.</tspan></text>
</svg>